{
    "asset" : {
        "generator" : "Khronos glTF Blender I/O v3.3.32",
        "version" : "2.0"
    },
    "scene" : 0,
    "scenes" : [
        {
            "name" : "Scene",
            "nodes" : [
                5,
                11,
                17,
                23,
                29,
                35,
                41,
                47,
                53,
                59,
                65,
                71,
                74
            ]
        }
    ],
    "nodes" : [
        {
            "name" : "Object_5"
        },
        {
            "children" : [
                0
            ],
            "name" : "Object_4",
            "rotation" : [
                0.7071068286895752,
                0,
                0,
                0.7071067094802856
            ]
        },
        {
            "children" : [
                1
            ],
            "name" : "HairAnisoLight",
            "scale" : [
                100,
                100,
                100
            ],
            "translation" : [
                0,
                200.00001525878906,
                0
            ]
        },
        {
            "children" : [
                2
            ],
            "name" : "RootNode"
        },
        {
            "children" : [
                3
            ],
            "name" : "d82cf1061bcb4b089abb98daa097a73b.fbx",
            "rotation" : [
                0.7071068286895752,
                0,
                0,
                0.7071067094802856
            ]
        },
        {
            "children" : [
                4
            ],
            "name" : "Sketchfab_model",
            "rotation" : [
                -0.7071068286895752,
                0,
                0,
                0.7071067094802856
            ],
            "translation" : [
                2.037947654724121,
                2.9703445434570312,
                3.688032627105713
            ]
        },
        {
            "name" : "Object_5.001"
        },
        {
            "children" : [
                6
            ],
            "name" : "Object_4.001",
            "rotation" : [
                0.7071068286895752,
                0,
                0,
                0.7071067094802856
            ]
        },
        {
            "children" : [
                7
            ],
            "name" : "HairAnisoLight.001",
            "scale" : [
                100,
                100,
                100
            ],
            "translation" : [
                0,
                200.00001525878906,
                0
            ]
        },
        {
            "children" : [
                8
            ],
            "name" : "RootNode.001"
        },
        {
            "children" : [
                9
            ],
            "name" : "d82cf1061bcb4b089abb98daa097a73b.fbx.001",
            "rotation" : [
                0.7071068286895752,
                0,
                0,
                0.7071067094802856
            ]
        },
        {
            "children" : [
                10
            ],
            "name" : "Sketchfab_model.001",
            "rotation" : [
                -0.7071068286895752,
                0,
                0,
                0.7071067094802856
            ],
            "translation" : [
                2.037947654724121,
                2.9703445434570312,
                3.688032627105713
            ]
        },
        {
            "name" : "Object_5.002"
        },
        {
            "children" : [
                12
            ],
            "name" : "Object_4.002",
            "rotation" : [
                0.7071068286895752,
                0,
                0,
                0.7071067094802856
            ]
        },
        {
            "children" : [
                13
            ],
            "name" : "HairAnisoLight.002",
            "scale" : [
                100,
                100,
                100
            ],
            "translation" : [
                0,
                200.00001525878906,
                0
            ]
        },
        {
            "children" : [
                14
            ],
            "name" : "RootNode.002"
        },
        {
            "children" : [
                15
            ],
            "name" : "d82cf1061bcb4b089abb98daa097a73b.fbx.002",
            "rotation" : [
                0.7071068286895752,
                0,
                0,
                0.7071067094802856
            ]
        },
        {
            "children" : [
                16
            ],
            "name" : "Sketchfab_model.002",
            "rotation" : [
                -0.7071068286895752,
                0,
                0,
                0.7071067094802856
            ],
            "translation" : [
                2.037947654724121,
                2.9703445434570312,
                3.688032627105713
            ]
        },
        {
            "name" : "Object_5.003"
        },
        {
            "children" : [
                18
            ],
            "name" : "Object_4.003",
            "rotation" : [
                0.7071068286895752,
                0,
                0,
                0.7071067094802856
            ]
        },
        {
            "children" : [
                19
            ],
            "name" : "HairAnisoLight.003",
            "scale" : [
                100,
                100,
                100
            ],
            "translation" : [
                0,
                200.00001525878906,
                0
            ]
        },
        {
            "children" : [
                20
            ],
            "name" : "RootNode.003"
        },
        {
            "children" : [
                21
            ],
            "name" : "d82cf1061bcb4b089abb98daa097a73b.fbx.003",
            "rotation" : [
                0.7071068286895752,
                0,
                0,
                0.7071067094802856
            ]
        },
        {
            "children" : [
                22
            ],
            "name" : "Sketchfab_model.003",
            "rotation" : [
                -0.7071068286895752,
                0,
                0,
                0.7071067094802856
            ],
            "translation" : [
                2.037947654724121,
                2.9703445434570312,
                3.688032627105713
            ]
        },
        {
            "name" : "Object_5.004"
        },
        {
            "children" : [
                24
            ],
            "name" : "Object_4.004",
            "rotation" : [
                0.7071068286895752,
                0,
                0,
                0.7071067094802856
            ]
        },
        {
            "children" : [
                25
            ],
            "name" : "HairAnisoLight.004",
            "scale" : [
                100,
                100,
                100
            ],
            "translation" : [
                0,
                200.00001525878906,
                0
            ]
        },
        {
            "children" : [
                26
            ],
            "name" : "RootNode.004"
        },
        {
            "children" : [
                27
            ],
            "name" : "d82cf1061bcb4b089abb98daa097a73b.fbx.004",
            "rotation" : [
                0.7071068286895752,
                0,
                0,
                0.7071067094802856
            ]
        },
        {
            "children" : [
                28
            ],
            "name" : "Sketchfab_model.004",
            "rotation" : [
                -0.7071068286895752,
                0,
                0,
                0.7071067094802856
            ],
            "translation" : [
                2.037947654724121,
                2.9703445434570312,
                3.688032627105713
            ]
        },
        {
            "name" : "Object_5.005"
        },
        {
            "children" : [
                30
            ],
            "name" : "Object_4.005",
            "rotation" : [
                0.7071068286895752,
                0,
                0,
                0.7071067094802856
            ]
        },
        {
            "children" : [
                31
            ],
            "name" : "HairAnisoLight.005",
            "scale" : [
                100,
                100,
                100
            ],
            "translation" : [
                0,
                200.00001525878906,
                0
            ]
        },
        {
            "children" : [
                32
            ],
            "name" : "RootNode.005"
        },
        {
            "children" : [
                33
            ],
            "name" : "d82cf1061bcb4b089abb98daa097a73b.fbx.005",
            "rotation" : [
                0.7071068286895752,
                0,
                0,
                0.7071067094802856
            ]
        },
        {
            "children" : [
                34
            ],
            "name" : "Sketchfab_model.005",
            "rotation" : [
                -0.7071068286895752,
                0,
                0,
                0.7071067094802856
            ],
            "translation" : [
                2.037947654724121,
                2.9703445434570312,
                3.688032627105713
            ]
        },
        {
            "name" : "Object_5.006"
        },
        {
            "children" : [
                36
            ],
            "name" : "Object_4.006",
            "rotation" : [
                0.7071068286895752,
                0,
                0,
                0.7071067094802856
            ]
        },
        {
            "children" : [
                37
            ],
            "name" : "HairAnisoLight.006",
            "scale" : [
                100,
                100,
                100
            ],
            "translation" : [
                0,
                200.00001525878906,
                0
            ]
        },
        {
            "children" : [
                38
            ],
            "name" : "RootNode.006"
        },
        {
            "children" : [
                39
            ],
            "name" : "d82cf1061bcb4b089abb98daa097a73b.fbx.006",
            "rotation" : [
                0.7071068286895752,
                0,
                0,
                0.7071067094802856
            ]
        },
        {
            "children" : [
                40
            ],
            "name" : "Sketchfab_model.006",
            "rotation" : [
                -0.7071068286895752,
                0,
                0,
                0.7071067094802856
            ],
            "translation" : [
                2.037947654724121,
                2.9703445434570312,
                3.688032627105713
            ]
        },
        {
            "name" : "Object_5.007"
        },
        {
            "children" : [
                42
            ],
            "name" : "Object_4.007",
            "rotation" : [
                0.7071068286895752,
                0,
                0,
                0.7071067094802856
            ]
        },
        {
            "children" : [
                43
            ],
            "name" : "HairAnisoLight.007",
            "scale" : [
                100,
                100,
                100
            ],
            "translation" : [
                0,
                200.00001525878906,
                0
            ]
        },
        {
            "children" : [
                44
            ],
            "name" : "RootNode.007"
        },
        {
            "children" : [
                45
            ],
            "name" : "d82cf1061bcb4b089abb98daa097a73b.fbx.007",
            "rotation" : [
                0.7071068286895752,
                0,
                0,
                0.7071067094802856
            ]
        },
        {
            "children" : [
                46
            ],
            "name" : "Sketchfab_model.007",
            "rotation" : [
                -0.7071068286895752,
                0,
                0,
                0.7071067094802856
            ],
            "translation" : [
                2.037947654724121,
                2.9703445434570312,
                3.688032627105713
            ]
        },
        {
            "name" : "Object_5.008"
        },
        {
            "children" : [
                48
            ],
            "name" : "Object_4.008",
            "rotation" : [
                0.7071068286895752,
                0,
                0,
                0.7071067094802856
            ]
        },
        {
            "children" : [
                49
            ],
            "name" : "HairAnisoLight.008",
            "scale" : [
                100,
                100,
                100
            ],
            "translation" : [
                0,
                200.00001525878906,
                0
            ]
        },
        {
            "children" : [
                50
            ],
            "name" : "RootNode.008"
        },
        {
            "children" : [
                51
            ],
            "name" : "d82cf1061bcb4b089abb98daa097a73b.fbx.008",
            "rotation" : [
                0.7071068286895752,
                0,
                0,
                0.7071067094802856
            ]
        },
        {
            "children" : [
                52
            ],
            "name" : "Sketchfab_model.008",
            "rotation" : [
                -0.7071068286895752,
                0,
                0,
                0.7071067094802856
            ],
            "translation" : [
                2.037947654724121,
                2.9703445434570312,
                3.688032627105713
            ]
        },
        {
            "name" : "Object_5.009"
        },
        {
            "children" : [
                54
            ],
            "name" : "Object_4.009",
            "rotation" : [
                0.7071068286895752,
                0,
                0,
                0.7071067094802856
            ]
        },
        {
            "children" : [
                55
            ],
            "name" : "HairAnisoLight.009",
            "scale" : [
                100,
                100,
                100
            ],
            "translation" : [
                0,
                200.00001525878906,
                0
            ]
        },
        {
            "children" : [
                56
            ],
            "name" : "RootNode.009"
        },
        {
            "children" : [
                57
            ],
            "name" : "d82cf1061bcb4b089abb98daa097a73b.fbx.009",
            "rotation" : [
                0.7071068286895752,
                0,
                0,
                0.7071067094802856
            ]
        },
        {
            "children" : [
                58
            ],
            "name" : "Sketchfab_model.009",
            "rotation" : [
                -0.7071068286895752,
                0,
                0,
                0.7071067094802856
            ],
            "translation" : [
                2.037947654724121,
                2.9703445434570312,
                3.688032627105713
            ]
        },
        {
            "name" : "Object_5.010"
        },
        {
            "children" : [
                60
            ],
            "name" : "Object_4.010",
            "rotation" : [
                0.7071068286895752,
                0,
                0,
                0.7071067094802856
            ]
        },
        {
            "children" : [
                61
            ],
            "name" : "HairAnisoLight.010",
            "scale" : [
                100,
                100,
                100
            ],
            "translation" : [
                0,
                200.00001525878906,
                0
            ]
        },
        {
            "children" : [
                62
            ],
            "name" : "RootNode.010"
        },
        {
            "children" : [
                63
            ],
            "name" : "d82cf1061bcb4b089abb98daa097a73b.fbx.010",
            "rotation" : [
                0.7071068286895752,
                0,
                0,
                0.7071067094802856
            ]
        },
        {
            "children" : [
                64
            ],
            "name" : "Sketchfab_model.010",
            "rotation" : [
                -0.7071068286895752,
                0,
                0,
                0.7071067094802856
            ],
            "translation" : [
                2.037947654724121,
                2.9703445434570312,
                3.688032627105713
            ]
        },
        {
            "name" : "Object_5.011"
        },
        {
            "children" : [
                66
            ],
            "name" : "Object_4.011",
            "rotation" : [
                0.7071068286895752,
                0,
                0,
                0.7071067094802856
            ]
        },
        {
            "children" : [
                67
            ],
            "name" : "HairAnisoLight.011",
            "scale" : [
                100,
                100,
                100
            ],
            "translation" : [
                0,
                200.00001525878906,
                0
            ]
        },
        {
            "children" : [
                68
            ],
            "name" : "RootNode.011"
        },
        {
            "children" : [
                69
            ],
            "name" : "d82cf1061bcb4b089abb98daa097a73b.fbx.011",
            "rotation" : [
                0.7071068286895752,
                0,
                0,
                0.7071067094802856
            ]
        },
        {
            "children" : [
                70
            ],
            "name" : "Sketchfab_model.011",
            "rotation" : [
                -0.7071068286895752,
                0,
                0,
                0.7071067094802856
            ],
            "translation" : [
                2.037947654724121,
                2.9703445434570312,
                3.688032627105713
            ]
        },
        {
            "mesh" : 0,
            "name" : "Object_2",
            "rotation" : [
                0.6401844620704651,
                0,
                0,
                0.7682212591171265
            ],
            "scale" : [
                0.5,
                0.5,
                0.5
            ],
            "translation" : [
                0,
                6,
                0
            ]
        },
        {
            "children" : [
                72
            ],
            "name" : "Project Name.obj.cleaner.materialmerger.gles"
        },
        {
            "children" : [
                73
            ],
            "name" : "Sketchfab_model.012",
            "rotation" : [
                -0.7071068286895752,
                0,
                0,
                0.7071067094802856
            ]
        }
    ],
    "materials" : [
        {
            "doubleSided" : true,
            "name" : "Beard_3952510c-f27a-40f4-92c6-070988b59cce",
            "pbrMetallicRoughness" : {
                "metallicFactor" : 0
            }
        },
        {
            "doubleSided" : true,
            "name" : "Mustache_65b81f73-7620-48d5-97f5-9b752d8e6f7d",
            "pbrMetallicRoughness" : {
                "metallicFactor" : 0
            }
        }
    ],
    "meshes" : [
        {
            "name" : "Object_0.004",
            "primitives" : [
                {
                    "attributes" : {
                        "POSITION" : 0,
                        "NORMAL" : 1,
                        "TEXCOORD_0" : 2
                    },
                    "indices" : 3,
                    "material" : 0
                },
                {
                    "attributes" : {
                        "POSITION" : 4,
                        "NORMAL" : 5,
                        "TEXCOORD_0" : 6
                    },
                    "indices" : 7,
                    "material" : 1
                }
            ]
        }
    ],
    "accessors" : [
        {
            "bufferView" : 0,
            "componentType" : 5126,
            "count" : 4136,
            "max" : [
                8.401000022888184,
                13.52400016784668,
                22.968000411987305
            ],
            "min" : [
                -8.708000183105469,
                -17.038999557495117,
                11.069999694824219
            ],
            "type" : "VEC3"
        },
        {
            "bufferView" : 1,
            "componentType" : 5126,
            "count" : 4136,
            "type" : "VEC3"
        },
        {
            "bufferView" : 2,
            "componentType" : 5126,
            "count" : 4136,
            "type" : "VEC2"
        },
        {
            "bufferView" : 3,
            "componentType" : 5123,
            "count" : 23259,
            "type" : "SCALAR"
        },
        {
            "bufferView" : 4,
            "componentType" : 5126,
            "count" : 1964,
            "max" : [
                6.5920000076293945,
                5.38100004196167,
                23.33099937438965
            ],
            "min" : [
                -6.586999893188477,
                -0.7039999961853027,
                18.90399932861328
            ],
            "type" : "VEC3"
        },
        {
            "bufferView" : 5,
            "componentType" : 5126,
            "count" : 1964,
            "type" : "VEC3"
        },
        {
            "bufferView" : 6,
            "componentType" : 5126,
            "count" : 1964,
            "type" : "VEC2"
        },
        {
            "bufferView" : 7,
            "componentType" : 5123,
            "count" : 10794,
            "type" : "SCALAR"
        }
    ],
    "bufferViews" : [
        {
            "buffer" : 0,
            "byteLength" : 49632,
            "byteOffset" : 0,
            "target" : 34962
        },
        {
            "buffer" : 0,
            "byteLength" : 49632,
            "byteOffset" : 49632,
            "target" : 34962
        },
        {
            "buffer" : 0,
            "byteLength" : 33088,
            "byteOffset" : 99264,
            "target" : 34962
        },
        {
            "buffer" : 0,
            "byteLength" : 46518,
            "byteOffset" : 132352,
            "target" : 34963
        },
        {
            "buffer" : 0,
            "byteLength" : 23568,
            "byteOffset" : 178872,
            "target" : 34962
        },
        {
            "buffer" : 0,
            "byteLength" : 23568,
            "byteOffset" : 202440,
            "target" : 34962
        },
        {
            "buffer" : 0,
            "byteLength" : 15712,
            "byteOffset" : 226008,
            "target" : 34962
        },
        {
            "buffer" : 0,
            "byteLength" : 21588,
            "byteOffset" : 241720,
            "target" : 34963
        }
    ],
    "buffers" : [
        {
            "byteLength" : 263308,
            "uri" : "data:application/octet-stream;base64,"
        }
    ]
}
