{
  "accessors": [
    {
      "bufferView": 2,
      "componentType": 5126,
      "count": 1848,
      "max": [
        4.138090133666992,
        0.10094299912452698,
        4.007327079772949
      ],
      "min": [
        3.67767596244812,
        -0.11642300337553024,
        3.5340230464935303
      ],
      "type": "VEC3"
    },
    {
      "bufferView": 2,
      "byteOffset": 22176,
      "componentType": 5126,
      "count": 1848,
      "max": [
        0.9983050227165222,
        0.9989355802536011,
        0.9988439083099365
      ],
      "min": [
        -0.9983050227165222,
        -0.9989355802536011,
        -0.9999608993530273
      ],
      "type": "VEC3"
    },
    {
      "bufferView": 1,
      "componentType": 5126,
      "count": 1848,
      "max": [
        0.0,
        0.0
      ],
      "min": [
        0.0,
        0.0
      ],
      "type": "VEC2"
    },
    {
      "bufferView": 0,
      "componentType": 5125,
      "count": 9504,
      "type": "SCALAR"
    },
    {
      "bufferView": 2,
      "byteOffset": 44352,
      "componentType": 5126,
      "count": 6358,
      "max": [
        4.296665191650391,
        0.10567200183868408,
        5.487082004547119
      ],
      "min": [
        3.5074329376220703,
        -0.8827810287475586,
        3.3999829292297363
      ],
      "type": "VEC3"
    },
    {
      "bufferView": 2,
      "byteOffset": 120648,
      "componentType": 5126,
      "count": 6358,
      "max": [
        0.9997140765190125,
        0.9996437430381775,
        0.9996857047080994
      ],
      "min": [
        -0.9997666478157043,
        -0.9995011687278748,
        -0.9994380474090576
      ],
      "type": "VEC3"
    },
    {
      "bufferView": 3,
      "componentType": 5126,
      "count": 6358,
      "max": [
        0.9996775388717651,
        0.9996877908706665,
        0.999934732913971,
        1.0
      ],
      "min": [
        -0.9999884963035583,
        -0.9999958276748657,
        -0.9996663331985474,
        -1.0
      ],
      "type": "VEC4"
    },
    {
      "bufferView": 1,
      "byteOffset": 14784,
      "componentType": 5126,
      "count": 6358,
      "max": [
        0.9897459745407104,
        0.9989640116691589
      ],
      "min": [
        0.5200200080871582,
        0.0078119998797774315
      ],
      "type": "VEC2"
    },
    {
      "bufferView": 0,
      "byteOffset": 38016,
      "componentType": 5125,
      "count": 25770,
      "type": "SCALAR"
    }
  ],
  "asset": {
    "extras": {
      "author": "OCBacon (https://sketchfab.com/OCBacon)",
      "license": "CC-BY-4.0 (http://creativecommons.org/licenses/by/4.0/)",
      "source": "https://sketchfab.com/3d-models/cornrow-braids-hairstyle-c8052613e7894027a272e5af04ca8da4",
      "title": "Cornrow Braids Hairstyle"
    },
    "generator": "Sketchfab-12.67.0",
    "version": "2.0"
  },
  "bufferViews": [
    {
      "buffer": 0,
      "byteLength": 141096,
      "name": "floatBufferViews",
      "target": 34963
    },
    {
      "buffer": 0,
      "byteLength": 65648,
      "byteOffset": 141096,
      "byteStride": 8,
      "name": "floatBufferViews",
      "target": 34962
    },
    {
      "buffer": 0,
      "byteLength": 196944,
      "byteOffset": 206744,
      "byteStride": 12,
      "name": "floatBufferViews",
      "target": 34962
    },
    {
      "buffer": 0,
      "byteLength": 101728,
      "byteOffset": 403688,
      "byteStride": 16,
      "name": "floatBufferViews",
      "target": 34962
    }
  ],
  "buffers": [
    {
      "byteLength": 505416,
      "uri": "scene.bin"
    }
  ],
  "images": [
    {
      "uri": "textures/Material_002.001_baseColor.png"
    },
    {
      "uri": "textures/Material_002.001_normal.png"
    }
  ],
  "materials": [
    {
      "doubleSided": true,
      "name": "Material.016",
      "pbrMetallicRoughness": {
        "baseColorFactor": [
          0.7999999999999999,
          0.555946,
          0.2602969999999998,
          1.0
        ],
        "roughnessFactor": 0.0
      }
    },
    {
      "alphaMode": "BLEND",
      "doubleSided": true,
      "name": "Material_002.001",
      "normalTexture": {
        "index": 1
      },
      "pbrMetallicRoughness": {
        "baseColorFactor": [
          0.5042366352092641,
          0.5042366352092641,
          0.5042366352092641,
          1.0
        ],
        "baseColorTexture": {
          "index": 0
        },
        "metallicFactor": 0.0,
        "roughnessFactor": 0.4665522170880836
      }
    }
  ],
  "meshes": [
    {
      "name": "Object_0",
      "primitives": [
        {
          "attributes": {
            "NORMAL": 1,
            "POSITION": 0,
            "TEXCOORD_0": 2
          },
          "indices": 3,
          "material": 0,
          "mode": 4
        }
      ]
    },
    {
      "name": "Object_1",
      "primitives": [
        {
          "attributes": {
            "NORMAL": 5,
            "POSITION": 4,
            "TANGENT": 6,
            "TEXCOORD_0": 7
          },
          "indices": 8,
          "material": 1,
          "mode": 4
        }
      ]
    }
  ],
  "nodes": [
    {
      "children": [
        1
      ],
      "matrix": [
        1.0,
        0.0,
        0.0,
        0.0,
        0.0,
        2.220446049250313e-16,
        -1.0,
        0.0,
        0.0,
        1.0,
        2.220446049250313e-16,
        0.0,
        0.0,
        0.0,
        0.0,
        1.0
      ],
      "name": "Sketchfab_model"
    },
    {
      "children": [
        2,
        3
      ],
      "name": "hair.obj.cleaner.materialmerger.gles"
    },
    {
      "mesh": 0,
      "name": "Object_2"
    },
    {
      "mesh": 1,
      "name": "Object_3"
    }
  ],
  "samplers": [
    {
      "magFilter": 9729,
      "minFilter": 9987,
      "wrapS": 10497,
      "wrapT": 10497
    }
  ],
  "scene": 0,
  "scenes": [
    {
      "name": "Sketchfab_Scene",
      "nodes": [
        0
      ]
    }
  ],
  "textures": [
    {
      "sampler": 0,
      "source": 0
    },
    {
      "sampler": 0,
      "source": 1
    }
  ]
}
