{
    "asset" : {
        "generator" : "Khronos glTF Blender I/O v3.4.50",
        "version" : "2.0"
    },
    "scene" : 0,
    "scenes" : [
        {
            "name" : "Scene",
            "nodes" : [
                0
            ]
        }
    ],
    "nodes" : [
        {
            "mesh" : 0,
            "name" : "head",
            "rotation" : [
                0.70710688829422,
                0,
                0,
                0.7071066498756409
            ]
        }
    ],
    "meshes" : [
        {
            "name" : "head",
            "primitives" : [
                {
                    "attributes" : {
                        "POSITION" : 0,
                        "TEXCOORD_0" : 1,
                        "NORMAL" : 2
                    },
                    "indices" : 3
                }
            ]
        }
    ],
    "accessors" : [
        {
            "bufferView" : 0,
            "componentType" : 5126,
            "count" : 12632,
            "max" : [
                1.416267991065979,
                1.4091269969940186,
                3.831247091293335
            ],
            "min" : [
                -1.3950090408325195,
                -1.8824820518493652,
                -4.662240982055664
            ],
            "type" : "VEC3"
        },
        {
            "bufferView" : 1,
            "componentType" : 5126,
            "count" : 12632,
            "type" : "VEC2"
        },
        {
            "bufferView" : 2,
            "componentType" : 5126,
            "count" : 12632,
            "type" : "VEC3"
        },
        {
            "bufferView" : 3,
            "componentType" : 5123,
            "count" : 18540,
            "type" : "SCALAR"
        }
    ],
    "bufferViews" : [
        {
            "buffer" : 0,
            "byteLength" : 151584,
            "byteOffset" : 0,
            "target" : 34962
        },
        {
            "buffer" : 0,
            "byteLength" : 101056,
            "byteOffset" : 151584,
            "target" : 34962
        },
        {
            "buffer" : 0,
            "byteLength" : 151584,
            "byteOffset" : 252640,
            "target" : 34962
        },
        {
            "buffer" : 0,
            "byteLength" : 37080,
            "byteOffset" : 404224,
            "target" : 34963
        }
    ],
    "buffers" : [
        {
            "byteLength" : 441304,
            "uri" : "data:application/octet-stream;base64,"
        }
    ]
}
