{
    "asset" : {
        "generator" : "Khronos glTF Blender I/O v3.3.32",
        "version" : "2.0"
    },
    "scene" : 0,
    "scenes" : [
        {
            "name" : "Scene",
            "nodes" : [
                5,
                8
            ]
        }
    ],
    "nodes" : [
        {
            "name" : "Object_5"
        },
        {
            "children" : [
                0
            ],
            "name" : "Object_4",
            "rotation" : [
                0.7071068286895752,
                0,
                0,
                0.7071067094802856
            ]
        },
        {
            "children" : [
                1
            ],
            "name" : "HairAnisoLight",
            "scale" : [
                100,
                100,
                100
            ],
            "translation" : [
                0,
                200,
                0
            ]
        },
        {
            "children" : [
                2
            ],
            "name" : "RootNode"
        },
        {
            "children" : [
                3
            ],
            "name" : "d82cf1061bcb4b089abb98daa097a73b.fbx",
            "rotation" : [
                0.7071068286895752,
                0,
                0,
                0.7071067094802856
            ]
        },
        {
            "children" : [
                4
            ],
            "name" : "Sketchfab_model",
            "rotation" : [
                -0.7071068286895752,
                0,
                0,
                0.7071067094802856
            ],
            "translation" : [
                2.037947654724121,
                -10,
                3.688032627105713
            ]
        },
        {
            "mesh" : 0,
            "name" : "Object_6",
            "scale" : [
                5,
                5,
                5
            ],
            "translation" : [
                0,
                0,
                -3
            ]
        },
        {
            "children" : [
                6
            ],
            "name" : "5ec43df4392046b291fa57a846cbc98a.3ds"
        },
        {
            "children" : [
                7
            ],
            "name" : "Sketchfab_model.001",
            "rotation" : [
                -0.7071068286895752,
                0,
                0,
                0.7071067094802856
            ]
        }
    ],
    "materials" : [
        {
            "doubleSided" : true,
            "name" : "Hair",
            "pbrMetallicRoughness" : {
                "baseColorFactor" : [
                    0.0013502006186172366,
                    0.0013502006186172366,
                    0.0030822763219475746,
                    1
                ],
                "metallicFactor" : 0,
                "roughnessFactor" : 0.6000000238418579
            }
        }
    ],
    "meshes" : [
        {
            "name" : "Object_4",
            "primitives" : [
                {
                    "attributes" : {
                        "POSITION" : 0,
                        "NORMAL" : 1,
                        "TEXCOORD_0" : 2
                    },
                    "indices" : 3,
                    "material" : 0
                }
            ]
        }
    ],
    "accessors" : [
        {
            "bufferView" : 0,
            "componentType" : 5126,
            "count" : 18900,
            "max" : [
                0.08268238604068756,
                0.07675085216760635,
                0.7258808612823486
            ],
            "min" : [
                -0.083476223051548,
                -0.027347205206751823,
                0.4301643371582031
            ],
            "type" : "VEC3"
        },
        {
            "bufferView" : 1,
            "componentType" : 5126,
            "count" : 18900,
            "type" : "VEC3"
        },
        {
            "bufferView" : 2,
            "componentType" : 5126,
            "count" : 18900,
            "type" : "VEC2"
        },
        {
            "bufferView" : 3,
            "componentType" : 5123,
            "count" : 109392,
            "type" : "SCALAR"
        }
    ],
    "bufferViews" : [
        {
            "buffer" : 0,
            "byteLength" : 226800,
            "byteOffset" : 0,
            "target" : 34962
        },
        {
            "buffer" : 0,
            "byteLength" : 226800,
            "byteOffset" : 226800,
            "target" : 34962
        },
        {
            "buffer" : 0,
            "byteLength" : 151200,
            "byteOffset" : 453600,
            "target" : 34962
        },
        {
            "buffer" : 0,
            "byteLength" : 218784,
            "byteOffset" : 604800,
            "target" : 34963
        }
    ],
    "buffers" : [
        {
            "byteLength" : 823584,
            "uri" : "data:application/octet-stream;base64,"
        }
    ]
}
