{
    "asset" : {
        "generator" : "Khronos glTF Blender I/O v3.3.32",
        "version" : "2.0"
    },
    "scene" : 0,
    "scenes" : [
        {
            "name" : "Scene",
            "nodes" : [
                3
            ]
        }
    ],
    "nodes" : [
        {
            "mesh" : 0,
            "name" : "Object_2"
        },
        {
            "mesh" : 1,
            "name" : "Object_3",
            "translation" : [
                -4,
                0,
                -5
            ]
        },
        {
            "children" : [
                0,
                1
            ],
            "name" : "hair.obj.cleaner.materialmerger.gles"
        },
        {
            "children" : [
                2
            ],
            "name" : "Sketchfab_model",
            "rotation" : [
                -0.7071068286895752,
                0,
                0,
                0.7071067094802856
            ]
        }
    ],
    "materials" : [
        {
            "doubleSided" : true,
            "name" : "Material.016",
            "pbrMetallicRoughness" : {
                "baseColorFactor" : [
                    0.800000011920929,
                    0.5559459924697876,
                    0.2602970004081726,
                    1
                ],
                "roughnessFactor" : 0
            }
        },
        {
            "alphaMode" : "BLEND",
            "doubleSided" : true,
            "name" : "Material_002.001",
            "normalTexture" : {
                "index" : 0
            },
            "pbrMetallicRoughness" : {
                "baseColorFactor" : [
                    0.50423663854599,
                    0.50423663854599,
                    0.50423663854599,
                    1
                ],
                "baseColorTexture" : {
                    "index" : 1
                },
                "metallicFactor" : 0,
                "roughnessFactor" : 0.4665522277355194
            }
        }
    ],
    "meshes" : [
        {
            "name" : "Object_0",
            "primitives" : [
                {
                    "attributes" : {
                        "POSITION" : 0,
                        "NORMAL" : 1,
                        "TEXCOORD_0" : 2
                    },
                    "indices" : 3,
                    "material" : 0
                }
            ]
        },
        {
            "name" : "Object_1",
            "primitives" : [
                {
                    "attributes" : {
                        "POSITION" : 4,
                        "NORMAL" : 5,
                        "TEXCOORD_0" : 6
                    },
                    "indices" : 7,
                    "material" : 1
                }
            ]
        }
    ],
    "textures" : [
        {
            "sampler" : 0,
            "source" : 0
        },
        {
            "sampler" : 0,
            "source" : 1
        }
    ],
    "images" : [
        {
            "bufferView" : 8,
            "mimeType" : "image/png",
            "name" : "Material_002.001_normal"
        },
        {
            "bufferView" : 9,
            "mimeType" : "image/png",
            "name" : "Material_002.001_baseColor"
        }
    ],
    "accessors" : [
        {
            "bufferView" : 0,
            "componentType" : 5126,
            "count" : 1848,
            "max" : [
                4.138090133666992,
                0.10094299912452698,
                4.007327079772949
            ],
            "min" : [
                3.67767596244812,
                -0.11642300337553024,
                3.5340230464935303
            ],
            "type" : "VEC3"
        },
        {
            "bufferView" : 1,
            "componentType" : 5126,
            "count" : 1848,
            "type" : "VEC3"
        },
        {
            "bufferView" : 2,
            "componentType" : 5126,
            "count" : 1848,
            "type" : "VEC2"
        },
        {
            "bufferView" : 3,
            "componentType" : 5123,
            "count" : 9504,
            "type" : "SCALAR"
        },
        {
            "bufferView" : 4,
            "componentType" : 5126,
            "count" : 6358,
            "max" : [
                4.296665191650391,
                0.10567200183868408,
                5.487082004547119
            ],
            "min" : [
                3.5074329376220703,
                -0.8827810287475586,
                3.3999829292297363
            ],
            "type" : "VEC3"
        },
        {
            "bufferView" : 5,
            "componentType" : 5126,
            "count" : 6358,
            "type" : "VEC3"
        },
        {
            "bufferView" : 6,
            "componentType" : 5126,
            "count" : 6358,
            "type" : "VEC2"
        },
        {
            "bufferView" : 7,
            "componentType" : 5123,
            "count" : 25770,
            "type" : "SCALAR"
        }
    ],
    "bufferViews" : [
        {
            "buffer" : 0,
            "byteLength" : 22176,
            "byteOffset" : 0,
            "target" : 34962
        },
        {
            "buffer" : 0,
            "byteLength" : 22176,
            "byteOffset" : 22176,
            "target" : 34962
        },
        {
            "buffer" : 0,
            "byteLength" : 14784,
            "byteOffset" : 44352,
            "target" : 34962
        },
        {
            "buffer" : 0,
            "byteLength" : 19008,
            "byteOffset" : 59136,
            "target" : 34963
        },
        {
            "buffer" : 0,
            "byteLength" : 76296,
            "byteOffset" : 78144,
            "target" : 34962
        },
        {
            "buffer" : 0,
            "byteLength" : 76296,
            "byteOffset" : 154440,
            "target" : 34962
        },
        {
            "buffer" : 0,
            "byteLength" : 50864,
            "byteOffset" : 230736,
            "target" : 34962
        },
        {
            "buffer" : 0,
            "byteLength" : 51540,
            "byteOffset" : 281600,
            "target" : 34963
        },
        {
            "buffer" : 0,
            "byteLength" : 210264,
            "byteOffset" : 333140
        },
        {
            "buffer" : 0,
            "byteLength" : 458654,
            "byteOffset" : 543404
        }
    ],
    "samplers" : [
        {
            "magFilter" : 9729,
            "minFilter" : 9987
        }
    ],
    "buffers" : [
        {
            "byteLength" : 1002060,
            "uri" : "data:application/octet-stream;base64,"
        }
    ]
}
