{"accessors" : [{"bufferView" : 0, "byteOffset" : 0, "componentType" : 5123, "count" : 38184, "type" : "SCALAR", "max" : [31855], "min" : [0]}, {"bufferView" : 1, "byteOffset" : 0, "componentType" : 5126, "count" : 31856, "type" : "VEC3", "max" : [0.14111429452896118, 0.11583840101957321, 1.771172046661377], "min" : [-0.142193004488945, -0.12539930641651154, 1.5065339803695679], "name" : "POSITION"}, {"bufferView" : 1, "byteOffset" : 12, "componentType" : 5126, "count" : 31856, "type" : "VEC3", "max" : [0.999893307685852, 0.9999181628227234, 0.9995753765106201], "min" : [-0.9999631643295288, -0.9993451237678528, -0.9998495578765869], "name" : "NORMAL"}], "asset" : {"generator" : "Aspose.3D 22.12", "version" : "2.0"}, "buffers" : [{"uri" : "data:application/octet-stream;base64,", "byteLength" : 992792}], "bufferViews" : [{"buffer" : 0, "byteOffset" : 0, "byteLength" : 76368, "target" : 34963}, {"buffer" : 0, "byteOffset" : 76372, "byteLength" : 916416, "byteStride" : 24, "target" : 34962}], "materials" : [{"name" : "material_0", "pbrMetallicRoughness" : {"baseColorFactor" : [1, 1, 1, 1], "metallicFactor" : 0, "roughnessFactor" : 0.6000000238418579}, "emissiveFactor" : [0, 0, 0], "alphaMode" : "OPAQUE", "doubleSided" : false}], "meshes" : [{"primitives" : [{"attributes" : {"POSITION" : 1, "NORMAL" : 2}, "indices" : 0, "material" : 0, "mode" : 4}], "name" : "Object_0"}], "nodes" : [{"mesh" : 0, "name" : "Object_2"}, {"children" : [0], "name" : "Hair_2_obj_cleaner_materialmerger_gles"}, {"children" : [1], "matrix" : [1, 0, 0, 0, 0, 2.220446049250313E-16, -1, 0, 0, 1, 2.220446049250313E-16, 0, 0, 0, 0, 1], "name" : "Sketchfab_model"}, {"children" : [2], "matrix" : [100, 0, 0, 0, 0, 100, 0, 0, 0, 0, 100, 0, 0, 0, 0, 1], "name" : "Meshes"}, {"children" : [3], "name" : "scene"}, {"children" : [4], "name" : "short2"}], "scene" : 0, "scenes" : [{"nodes" : [5]}]}