{
  "accessors": [
    {
      "bufferView": 2,
      "componentType": 5126,
      "count": 65532,
      "max": [
        -0.008683860301971436,
        0.12399572134017944,
        0.06427987664937973
      ],
      "min": [
        -0.2531833350658417,
        -0.041167207062244415,
        -0.1213855966925621
      ],
      "type": "VEC3"
    },
    {
      "bufferView": 2,
      "byteOffset": 786384,
      "componentType": 5126,
      "count": 65532,
      "max": [
        0.999970555305481,
        0.9999940395355225,
        0.9999923706054688
      ],
      "min": [
        -0.9999939203262329,
        -0.9998849630355835,
        -0.9999923706054688
      ],
      "type": "VEC3"
    },
    {
      "bufferView": 1,
      "componentType": 5126,
      "count": 65532,
      "max": [
        1.0,
        1.0
      ],
      "min": [
        0.0,
        0.0
      ],
      "type": "VEC2"
    },
    {
      "bufferView": 1,
      "byteOffset": 524256,
      "componentType": 5126,
      "count": 65532,
      "max": [
        1.0,
        1.0
      ],
      "min": [
        0.0,
        0.0
      ],
      "type": "VEC2"
    },
    {
      "bufferView": 0,
      "componentType": 5125,
      "count": 259785,
      "type": "SCALAR"
    },
    {
      "bufferView": 2,
      "byteOffset": 1572768,
      "componentType": 5126,
      "count": 65533,
      "max": [
        0.05420970916748047,
        0.15214870870113373,
        0.11349444091320038
      ],
      "min": [
        -0.2693454921245575,
        -0.10555115342140198,
        -0.12609387934207916
      ],
      "type": "VEC3"
    },
    {
      "bufferView": 2,
      "byteOffset": 2359164,
      "componentType": 5126,
      "count": 65533,
      "max": [
        0.9999467134475708,
        0.9999595880508423,
        0.9999744892120361
      ],
      "min": [
        -0.9999940395355225,
        -0.9999808073043823,
        -0.9999804496765137
      ],
      "type": "VEC3"
    },
    {
      "bufferView": 1,
      "byteOffset": 1048512,
      "componentType": 5126,
      "count": 65533,
      "max": [
        1.0,
        1.0
      ],
      "min": [
        0.0,
        0.0
      ],
      "type": "VEC2"
    },
    {
      "bufferView": 1,
      "byteOffset": 1572776,
      "componentType": 5126,
      "count": 65533,
      "max": [
        1.0,
        1.0
      ],
      "min": [
        0.0,
        0.0
      ],
      "type": "VEC2"
    },
    {
      "bufferView": 0,
      "byteOffset": 1039140,
      "componentType": 5125,
      "count": 256986,
      "type": "SCALAR"
    },
    {
      "bufferView": 2,
      "byteOffset": 3145560,
      "componentType": 5126,
      "count": 56727,
      "max": [
        0.05184658244252205,
        0.10749546438455582,
        0.11777807772159576
      ],
      "min": [
        -0.22244210541248322,
        -0.10543114691972733,
        -0.0864529013633728
      ],
      "type": "VEC3"
    },
    {
      "bufferView": 2,
      "byteOffset": 3826284,
      "componentType": 5126,
      "count": 56727,
      "max": [
        0.9999569654464722,
        0.9999958276748657,
        0.9999901056289673
      ],
      "min": [
        -0.9999966621398926,
        -0.9999208450317383,
        -0.9998716115951538
      ],
      "type": "VEC3"
    },
    {
      "bufferView": 1,
      "byteOffset": 2097040,
      "componentType": 5126,
      "count": 56727,
      "max": [
        1.0,
        1.0
      ],
      "min": [
        0.0,
        0.0
      ],
      "type": "VEC2"
    },
    {
      "bufferView": 1,
      "byteOffset": 2550856,
      "componentType": 5126,
      "count": 56727,
      "max": [
        1.0,
        1.0
      ],
      "min": [
        0.0,
        0.0
      ],
      "type": "VEC2"
    },
    {
      "bufferView": 0,
      "byteOffset": 2067084,
      "componentType": 5125,
      "count": 223605,
      "type": "SCALAR"
    }
  ],
  "asset": {
    "extras": {
      "author": "3FERRETS (https://sketchfab.com/3ferrets)",
      "license": "CC-BY-4.0 (http://creativecommons.org/licenses/by/4.0/)",
      "source": "https://sketchfab.com/3d-models/marilyn-monroe-hair-940da1cc70cb48fb864f08113a74d8e4",
      "title": "Marilyn Monroe Hair"
    },
    "generator": "Sketchfab-12.66.0",
    "version": "2.0"
  },
  "bufferViews": [
    {
      "buffer": 0,
      "byteLength": 2961504,
      "name": "floatBufferViews",
      "target": 34963
    },
    {
      "buffer": 0,
      "byteLength": 3004672,
      "byteOffset": 2961504,
      "byteStride": 8,
      "name": "floatBufferViews",
      "target": 34962
    },
    {
      "buffer": 0,
      "byteLength": 4507008,
      "byteOffset": 5966176,
      "byteStride": 12,
      "name": "floatBufferViews",
      "target": 34962
    }
  ],
  "buffers": [
    {
      "byteLength": 10473184,
      "uri": "scene.bin"
    }
  ],
  "images": [
    {
      "uri": "textures/HairMatAniso_mesh_baseColor.png"
    },
    {
      "uri": "textures/HairMatAniso_mesh_metallicRoughness.png"
    }
  ],
  "materials": [
    {
      "alphaMode": "BLEND",
      "doubleSided": true,
      "name": "HairMatAniso_mesh",
      "pbrMetallicRoughness": {
        "baseColorFactor": [
          1.0,
          1.0,
          1.0,
          0.9
        ],
        "baseColorTexture": {
          "index": 0
        },
        "metallicFactor": 0.0,
        "metallicRoughnessTexture": {
          "index": 1
        },
        "roughnessFactor": 0.95
      }
    }
  ],
  "meshes": [
    {
      "name": "hair_monroe_HairMatAniso_mesh_0",
      "primitives": [
        {
          "attributes": {
            "NORMAL": 1,
            "POSITION": 0,
            "TEXCOORD_0": 2,
            "TEXCOORD_1": 3
          },
          "indices": 4,
          "material": 0,
          "mode": 4
        }
      ]
    },
    {
      "name": "hair_monroe_HairMatAniso_mesh_0",
      "primitives": [
        {
          "attributes": {
            "NORMAL": 6,
            "POSITION": 5,
            "TEXCOORD_0": 7,
            "TEXCOORD_1": 8
          },
          "indices": 9,
          "material": 0,
          "mode": 4
        }
      ]
    },
    {
      "name": "hair_monroe_HairMatAniso_mesh_0",
      "primitives": [
        {
          "attributes": {
            "NORMAL": 11,
            "POSITION": 10,
            "TEXCOORD_0": 12,
            "TEXCOORD_1": 13
          },
          "indices": 14,
          "material": 0,
          "mode": 4
        }
      ]
    }
  ],
  "nodes": [
    {
      "children": [
        1
      ],
      "matrix": [
        1.0,
        0.0,
        0.0,
        0.0,
        0.0,
        2.220446049250313e-16,
        -1.0,
        0.0,
        0.0,
        1.0,
        2.220446049250313e-16,
        0.0,
        2.037947654724121,
        2.9703445434570304,
        3.6880326271057133,
        1.0
      ],
      "name": "Sketchfab_model"
    },
    {
      "children": [
        2
      ],
      "matrix": [
        1.0,
        0.0,
        0.0,
        0.0,
        0.0,
        0.0,
        1.0,
        0.0,
        0.0,
        -1.0,
        0.0,
        0.0,
        0.0,
        0.0,
        0.0,
        1.0
      ],
      "name": "d82cf1061bcb4b089abb98daa097a73b.fbx"
    },
    {
      "children": [
        3,
        6
      ],
      "name": "RootNode"
    },
    {
      "children": [
        4
      ],
      "matrix": [
        100.0,
        0.0,
        0.0,
        0.0,
        0.0,
        99.99999999999972,
        -7.5497901264043296e-06,
        0.0,
        0.0,
        7.5497901264043296e-06,
        99.99999999999972,
        0.0,
        0.0,
        200.0,
        0.0,
        1.0
      ],
      "name": "HairAnisoLight"
    },
    {
      "children": [
        5
      ],
      "matrix": [
        1.0,
        0.0,
        0.0,
        0.0,
        0.0,
        2.220446049250313e-16,
        1.0,
        0.0,
        0.0,
        -1.0,
        2.220446049250313e-16,
        0.0,
        0.0,
        0.0,
        0.0,
        1.0
      ],
      "name": "Object_4"
    },
    {
      "name": "Object_5"
    },
    {
      "children": [
        7,
        8,
        9
      ],
      "matrix": [
        24.066894233275725,
        80.54071455911294,
        57.29010869311717,
        0.0,
        -111.083510162672,
        -0.4520836368748822,
        47.300420458549105,
        0.0,
        31.91149812041346,
        -62.41975429487843,
        74.34653312040433,
        0.0,
        3.4175357818603516,
        31.244606018066406,
        5.240034580230713,
        1.0
      ],
      "name": "hair_monroe"
    },
    {
      "mesh": 0,
      "name": "hair_monroe_HairMatAniso_mesh_0"
    },
    {
      "mesh": 1,
      "name": "hair_monroe_HairMatAniso_mesh_0"
    },
    {
      "mesh": 2,
      "name": "hair_monroe_HairMatAniso_mesh_0"
    }
  ],
  "samplers": [
    {
      "magFilter": 9729,
      "minFilter": 9987,
      "wrapS": 10497,
      "wrapT": 10497
    }
  ],
  "scene": 0,
  "scenes": [
    {
      "name": "Sketchfab_Scene",
      "nodes": [
        0
      ]
    }
  ],
  "textures": [
    {
      "sampler": 0,
      "source": 0
    },
    {
      "sampler": 0,
      "source": 1
    }
  ]
}
